<svg width="865" height="866" xmlns="http://www.w3.org/2000/svg" xmlns:xlink="http://www.w3.org/1999/xlink" xml:space="preserve" overflow="hidden"><defs><filter id="fx0" x="-10%" y="-10%" width="120%" height="120%" filterUnits="userSpaceOnUse" primitiveUnits="userSpaceOnUse"><feComponentTransfer color-interpolation-filters="sRGB"><feFuncR type="discrete" tableValues="0 0"/><feFuncG type="discrete" tableValues="0 0"/><feFuncB type="discrete" tableValues="0 0"/><feFuncA type="linear" slope="0.301961" intercept="0"/></feComponentTransfer><feGaussianBlur stdDeviation="7.63889 7.63889"/></filter><filter id="fx1" x="-10%" y="-10%" width="120%" height="120%" filterUnits="userSpaceOnUse" primitiveUnits="userSpaceOnUse"><feComponentTransfer color-interpolation-filters="sRGB"><feFuncR type="discrete" tableValues="0 0"/><feFuncG type="discrete" tableValues="0 0"/><feFuncB type="discrete" tableValues="0 0"/><feFuncA type="linear" slope="0.301961" intercept="0"/></feComponentTransfer><feGaussianBlur stdDeviation="7.63889 7.63889"/></filter><clipPath id="clip2"><rect x="659" y="89" width="865" height="866"/></clipPath><clipPath id="clip3"><rect x="-7" y="-7" width="711" height="711"/></clipPath><clipPath id="clip4"><rect x="0" y="0" width="698" height="698"/></clipPath><clipPath id="clip5"><rect x="-7" y="-7" width="456" height="263"/></clipPath><clipPath id="clip6"><rect x="0" y="0" width="443" height="251"/></clipPath></defs><g clip-path="url(#clip2)" transform="translate(-659 -89)"><path d="M699.381 103 1295.91 103C1310.48 103 1322.29 114.823 1322.29 129.407L1322.29 285.058 1477.62 285.058C1492.19 285.058 1504 296.881 1504 311.465L1504 908.593C1504 923.177 1492.19 935 1477.62 935L881.09 935C866.521 935 854.71 923.177 854.71 908.593L854.71 752.942 699.381 752.942C684.811 752.942 673 741.119 673 726.535L673 129.407C673 114.823 684.811 103 699.381 103Z" stroke="#000000" stroke-width="27.5" stroke-linecap="round" stroke-linejoin="round" stroke-miterlimit="10" fill="#FFD966" fill-rule="evenodd"/><path d="M673 129.369C673 114.806 684.806 103 699.369 103L1295.63 103C1310.19 103 1322 114.806 1322 129.369L1322 726.631C1322 741.194 1310.19 753 1295.63 753L699.369 753C684.806 753 673 741.194 673 726.631Z" fill="#FFE699" fill-rule="evenodd"/><path d="M740.364 194.278 774.244 194.278 781.174 220.898C781.467 221.851 781.889 223.428 782.439 225.628 782.989 227.828 783.575 230.211 784.199 232.778 784.822 235.345 785.39 237.728 785.904 239.928L786.784 239.928C787.15 238.315 787.609 236.39 788.159 234.153 788.709 231.916 789.277 229.625 789.864 227.278 790.45 224.931 790.964 222.805 791.404 220.898L798.334 194.278 831.004 194.278 831.004 269.958 807.794 269.958 807.794 242.678C807.794 239.745 807.812 236.72 807.849 233.603 807.885 230.486 807.922 227.535 807.959 224.748 807.995 221.961 808.014 219.651 808.014 217.818L807.134 217.818C806.914 219.285 806.602 221.008 806.199 222.988 805.795 224.968 805.374 226.93 804.934 228.873 804.494 230.816 804.054 232.521 803.614 233.988L793.824 269.958 775.674 269.958 765.774 233.988C765.407 232.521 764.985 230.816 764.509 228.873 764.032 226.93 763.61 224.968 763.244 222.988 762.877 221.008 762.547 219.321 762.254 217.928L761.374 217.928C761.447 219.761 761.52 222.071 761.594 224.858 761.667 227.645 761.722 230.578 761.759 233.658 761.795 236.738 761.814 239.745 761.814 242.678L761.814 269.958 740.364 269.958Z" stroke="#000000" stroke-width="7" stroke-linejoin="round" stroke-miterlimit="10" fill-rule="evenodd"/><text fill="#000000" fill-opacity="0" font-family="Arial,Arial_MSFontService,sans-serif" font-size="75.68" x="740.364" y="260.498">M</text><path d="M862.5 236.5 877.5 236.5 877.5 190.5 907.5 190.5 907.5 236.5 922.5 236.5 892.5 266.5Z" stroke="#000000" stroke-width="6.875" stroke-linecap="round" stroke-miterlimit="8" fill-rule="evenodd"/><g clip-path="url(#clip3)" filter="url(#fx0)" transform="translate(827 258)"><g clip-path="url(#clip4)"><path d="M23.759 50.1685C23.759 35.583 35.5829 23.7591 50.1684 23.7591L647.35 23.7591C661.935 23.7591 673.759 35.583 673.759 50.1685L673.759 647.35C673.759 661.935 661.935 673.759 647.35 673.759L50.1684 673.759C35.5829 673.759 23.759 661.935 23.759 647.35Z" fill="#E54D26" fill-rule="evenodd"/></g></g><g clip-path="url(#clip5)" filter="url(#fx1)" transform="translate(887 623)"><g clip-path="url(#clip6)"><path d="M103.58 29.1613 139.781 59.6154 103.58 90.1232 95.2543 81.6369 121.841 59.7228 95.2543 37.6476ZM65.4604 29.1613 73.8393 37.6476 47.1987 59.508 73.8393 81.6369 65.4604 90.1232 29.2592 59.6154Z" stroke="#FFFFFF" stroke-width="10" stroke-linejoin="round" stroke-miterlimit="10" fill="#FFFFFF" fill-rule="evenodd"/><path d="M351.921 148.21 376.231 148.21 376.231 204.53 415.061 204.53 415.061 223.89 351.921 223.89ZM230.921 148.21 264.801 148.21 271.731 174.83C272.024 175.783 272.446 177.36 272.996 179.56 273.546 181.76 274.132 184.143 274.756 186.71 275.379 189.277 275.947 191.66 276.461 193.86L277.341 193.86C277.707 192.247 278.166 190.322 278.716 188.085 279.266 185.848 279.834 183.557 280.421 181.21 281.007 178.863 281.521 176.737 281.961 174.83L288.891 148.21 321.561 148.21 321.561 223.89 298.351 223.89 298.351 196.61C298.351 193.677 298.369 190.652 298.406 187.535 298.442 184.418 298.479 181.467 298.516 178.68 298.552 175.893 298.571 173.583 298.571 171.75L297.691 171.75C297.471 173.217 297.159 174.94 296.756 176.92 296.352 178.9 295.931 180.862 295.491 182.805 295.051 184.748 294.611 186.453 294.171 187.92L284.381 223.89 266.231 223.89 256.331 187.92C255.964 186.453 255.542 184.748 255.066 182.805 254.589 180.862 254.167 178.9 253.801 176.92 253.434 174.94 253.104 173.253 252.811 171.86L251.931 171.86C252.004 173.693 252.077 176.003 252.151 178.79 252.224 181.577 252.279 184.51 252.316 187.59 252.352 190.67 252.371 193.677 252.371 196.61L252.371 223.89 230.921 223.89ZM131.311 148.21 205.231 148.21 205.231 167.57 180.481 167.57 180.481 223.89 156.171 223.89 156.171 167.57 131.311 167.57ZM31.9207 148.21 56.2307 148.21 56.2307 175.82 82.9607 175.82 82.9607 148.21 107.271 148.21 107.271 223.89 82.9607 223.89 82.9607 195.18 56.2307 195.18 56.2307 223.89 31.9207 223.89Z" stroke="#FFFFFF" stroke-width="7" stroke-linejoin="round" stroke-miterlimit="10" fill="#FFFFFF" fill-rule="evenodd"/></g></g><path d="M854 311.409C854 296.824 865.824 285 880.409 285L1477.59 285C1492.18 285 1504 296.824 1504 311.409L1504 908.591C1504 923.176 1492.18 935 1477.59 935L880.409 935C865.824 935 854 923.176 854 908.591Z" fill="#E54D26" fill-rule="evenodd"/><path d="M993.82 655.402 1030.02 685.856 993.82 716.364 985.495 707.878 1012.08 685.964 985.495 663.889ZM955.701 655.402 964.08 663.889 937.44 685.749 964.08 707.878 955.701 716.364 919.5 685.856Z" stroke="#FFFFFF" stroke-width="10" stroke-linejoin="round" stroke-miterlimit="10" fill="#FFFFFF" fill-rule="evenodd"/><text fill="#000000" fill-opacity="0" font-family="Arial,Arial_MSFontService,sans-serif" font-size="60.9619" x="919.5" y="708.744">&lt;&gt;</text><path d="M1242.16 774.451 1266.47 774.451 1266.47 830.771 1305.3 830.771 1305.3 850.131 1242.16 850.131ZM1121.16 774.451 1155.04 774.451 1161.97 801.071C1162.26 802.024 1162.69 803.601 1163.24 805.801 1163.79 808.001 1164.37 810.384 1165 812.951 1165.62 815.518 1166.19 817.901 1166.7 820.101L1167.58 820.101C1167.95 818.488 1168.41 816.562 1168.96 814.326 1169.51 812.089 1170.07 809.798 1170.66 807.451 1171.25 805.104 1171.76 802.978 1172.2 801.071L1179.13 774.451 1211.8 774.451 1211.8 850.131 1188.59 850.131 1188.59 822.851C1188.59 819.918 1188.61 816.893 1188.65 813.776 1188.68 810.659 1188.72 807.708 1188.76 804.921 1188.79 802.134 1188.81 799.824 1188.81 797.991L1187.93 797.991C1187.71 799.458 1187.4 801.181 1187 803.161 1186.59 805.141 1186.17 807.103 1185.73 809.046 1185.29 810.989 1184.85 812.694 1184.41 814.161L1174.62 850.131 1156.47 850.131 1146.57 814.161C1146.2 812.694 1145.78 810.989 1145.31 809.046 1144.83 807.103 1144.41 805.141 1144.04 803.161 1143.67 801.181 1143.34 799.494 1143.05 798.101L1142.17 798.101C1142.24 799.934 1142.32 802.244 1142.39 805.031 1142.46 807.818 1142.52 810.751 1142.56 813.831 1142.59 816.911 1142.61 819.918 1142.61 822.851L1142.61 850.131 1121.16 850.131ZM1021.55 774.451 1095.47 774.451 1095.47 793.811 1070.72 793.811 1070.72 850.131 1046.41 850.131 1046.41 793.811 1021.55 793.811ZM922.162 774.451 946.472 774.451 946.472 802.061 973.202 802.061 973.202 774.451 997.512 774.451 997.512 850.131 973.202 850.131 973.202 821.421 946.472 821.421 946.472 850.131 922.162 850.131Z" stroke="#FFFFFF" stroke-width="7" stroke-linejoin="round" stroke-miterlimit="10" fill="#FFFFFF" fill-rule="evenodd"/><text fill="#000000" fill-opacity="0" font-family="Arial,Arial_MSFontService,sans-serif" font-size="75.68" x="922.162" y="840.671">HTML</text></g></svg>