<svg width="966" height="966" xmlns="http://www.w3.org/2000/svg" xmlns:xlink="http://www.w3.org/1999/xlink" xml:space="preserve" overflow="hidden"><defs><filter id="fx0" x="-10%" y="-10%" width="120%" height="120%" filterUnits="userSpaceOnUse" primitiveUnits="userSpaceOnUse"><feComponentTransfer color-interpolation-filters="sRGB"><feFuncR type="discrete" tableValues="0 0"/><feFuncG type="discrete" tableValues="0 0"/><feFuncB type="discrete" tableValues="0 0"/><feFuncA type="linear" slope="0.25098" intercept="0"/></feComponentTransfer><feGaussianBlur stdDeviation="7.64706 7.64706"/></filter><clipPath id="clip1"><rect x="199" y="975" width="966" height="966"/></clipPath><clipPath id="clip2"><rect x="-7.50802" y="-7.50803" width="170.015" height="170.015"/></clipPath><clipPath id="clip3"><rect x="0" y="0" width="156" height="156"/></clipPath></defs><g clip-path="url(#clip1)" transform="translate(-199 -975)"><path d="M199 1001.37C199 986.806 210.806 975 225.369 975L821.631 975C836.194 975 848 986.806 848 1001.37L848 1597.63C848 1612.19 836.194 1624 821.631 1624L225.369 1624C210.806 1624 199 1612.19 199 1597.63Z" fill="#FFC000" fill-rule="evenodd"/><path d="M266.454 1065.55 300.334 1065.55 307.264 1092.17C307.557 1093.12 307.979 1094.7 308.529 1096.9 309.079 1099.1 309.665 1101.48 310.289 1104.05 310.912 1106.61 311.48 1109 311.994 1111.2L312.874 1111.2C313.24 1109.58 313.699 1107.66 314.249 1105.42 314.799 1103.19 315.367 1100.89 315.954 1098.55 316.54 1096.2 317.054 1094.07 317.494 1092.17L324.424 1065.55 357.094 1065.55 357.094 1141.23 333.884 1141.23 333.884 1113.95C333.884 1111.01 333.902 1107.99 333.939 1104.87 333.975 1101.76 334.012 1098.8 334.049 1096.02 334.085 1093.23 334.104 1090.92 334.104 1089.09L333.224 1089.09C333.004 1090.55 332.692 1092.28 332.289 1094.26 331.885 1096.24 331.464 1098.2 331.024 1100.14 330.584 1102.09 330.144 1103.79 329.704 1105.26L319.914 1141.23 301.764 1141.23 291.864 1105.26C291.497 1103.79 291.075 1102.09 290.599 1100.14 290.122 1098.2 289.7 1096.24 289.334 1094.26 288.967 1092.28 288.637 1090.59 288.344 1089.2L287.464 1089.2C287.537 1091.03 287.61 1093.34 287.684 1096.13 287.757 1098.91 287.812 1101.85 287.849 1104.93 287.885 1108.01 287.904 1111.01 287.904 1113.95L287.904 1141.23 266.454 1141.23Z" stroke="#000000" stroke-width="7" stroke-linejoin="round" stroke-miterlimit="10" fill-rule="evenodd"/><text fill="#000000" fill-opacity="0" font-family="Arial,Arial_MSFontService,sans-serif" font-size="75.6799" x="266.454" y="1131.77">M</text><path d="M388.5 1107.5 403.5 1107.5 403.5 1061.5 433.5 1061.5 433.5 1107.5 448.5 1107.5 418.5 1137.5Z" stroke="#000000" stroke-width="6.875" stroke-linecap="round" stroke-miterlimit="8" fill-rule="evenodd"/><g clip-path="url(#clip2)" filter="url(#fx0)" transform="matrix(5.99359 0 0 5.99359 231 1007)"><g clip-path="url(#clip3)"><path d="M23.2346 27.685C23.2346 25.2272 25.2271 23.2347 27.685 23.2347L128.318 23.2347C130.776 23.2347 132.768 25.2272 132.768 27.685L132.768 128.318C132.768 130.776 130.776 132.768 128.318 132.768L27.685 132.768C25.2271 132.768 23.2346 130.776 23.2346 128.318Z" fill="#E54D26" fill-rule="evenodd"/></g></g><path d="M380 1182.41C380 1167.82 391.824 1156 406.409 1156L1003.59 1156C1018.18 1156 1030 1167.82 1030 1182.41L1030 1779.59C1030 1794.18 1018.18 1806 1003.59 1806L406.409 1806C391.824 1806 380 1794.18 380 1779.59Z" fill="#E54D26" fill-rule="evenodd"/><path d="M519.911 1526.67 556.112 1557.13 519.911 1587.63 511.585 1579.15 538.172 1557.23 511.585 1535.16ZM481.792 1526.67 490.17 1535.16 463.53 1557.02 490.17 1579.15 481.792 1587.63 445.59 1557.13Z" stroke="#FFFFFF" stroke-width="10" stroke-linejoin="round" stroke-miterlimit="10" fill="#FFFFFF" fill-rule="evenodd"/><text fill="#000000" fill-opacity="0" font-family="Arial,Arial_MSFontService,sans-serif" font-size="60.9619" x="445.59" y="1580.01">&lt;&gt;</text><path d="M768.252 1645.72 792.562 1645.72 792.562 1702.04 831.392 1702.04 831.392 1721.4 768.252 1721.4ZM647.252 1645.72 681.132 1645.72 688.062 1672.34C688.355 1673.29 688.777 1674.87 689.327 1677.07 689.877 1679.27 690.464 1681.65 691.087 1684.22 691.71 1686.79 692.279 1689.17 692.792 1691.37L693.672 1691.37C694.039 1689.76 694.497 1687.83 695.047 1685.6 695.597 1683.36 696.165 1681.07 696.752 1678.72 697.339 1676.37 697.852 1674.25 698.292 1672.34L705.222 1645.72 737.892 1645.72 737.892 1721.4 714.682 1721.4 714.682 1694.12C714.682 1691.19 714.7 1688.16 714.737 1685.05 714.773 1681.93 714.81 1678.98 714.847 1676.19 714.883 1673.4 714.902 1671.09 714.902 1669.26L714.022 1669.26C713.802 1670.73 713.49 1672.45 713.087 1674.43 712.683 1676.41 712.262 1678.37 711.822 1680.32 711.382 1682.26 710.942 1683.96 710.502 1685.43L700.712 1721.4 682.562 1721.4 672.662 1685.43C672.295 1683.96 671.874 1682.26 671.397 1680.32 670.92 1678.37 670.499 1676.41 670.132 1674.43 669.765 1672.45 669.435 1670.76 669.142 1669.37L668.262 1669.37C668.335 1671.2 668.409 1673.51 668.482 1676.3 668.555 1679.09 668.61 1682.02 668.647 1685.1 668.683 1688.18 668.702 1691.19 668.702 1694.12L668.702 1721.4 647.252 1721.4ZM547.642 1645.72 621.562 1645.72 621.562 1665.08 596.812 1665.08 596.812 1721.4 572.502 1721.4 572.502 1665.08 547.642 1665.08ZM448.252 1645.72 472.562 1645.72 472.562 1673.33 499.292 1673.33 499.292 1645.72 523.602 1645.72 523.602 1721.4 499.292 1721.4 499.292 1692.69 472.562 1692.69 472.562 1721.4 448.252 1721.4Z" stroke="#FFFFFF" stroke-width="7" stroke-linejoin="round" stroke-miterlimit="10" fill="#FFFFFF" fill-rule="evenodd"/><text fill="#000000" fill-opacity="0" font-family="Arial,Arial_MSFontService,sans-serif" font-size="75.6801" x="448.252" y="1711.94">HTML</text></g></svg>