<svg width="1261" height="1262" xmlns="http://www.w3.org/2000/svg" xmlns:xlink="http://www.w3.org/1999/xlink" xml:space="preserve" overflow="hidden"><defs><filter id="fx0" x="-10%" y="-10%" width="120%" height="120%" filterUnits="userSpaceOnUse" primitiveUnits="userSpaceOnUse"><feComponentTransfer color-interpolation-filters="sRGB"><feFuncR type="discrete" tableValues="0 0"/><feFuncG type="discrete" tableValues="0 0"/><feFuncB type="discrete" tableValues="0 0"/><feFuncA type="linear" slope="0.14902" intercept="0"/></feComponentTransfer><feGaussianBlur stdDeviation="7.64603 7.64603"/></filter><filter id="fx1" x="-10%" y="-10%" width="120%" height="120%" filterUnits="userSpaceOnUse" primitiveUnits="userSpaceOnUse"><feComponentTransfer color-interpolation-filters="sRGB"><feFuncR type="discrete" tableValues="0 0"/><feFuncG type="discrete" tableValues="0 0"/><feFuncB type="discrete" tableValues="0 0"/><feFuncA type="linear" slope="0.14902" intercept="0"/></feComponentTransfer><feGaussianBlur stdDeviation="7.64954 7.65678"/></filter><clipPath id="clip2"><rect x="459" y="244" width="1261" height="1262"/></clipPath><clipPath id="clip3"><rect x="-7.50702" y="-7.50702" width="551.015" height="551.015"/></clipPath><clipPath id="clip4"><rect x="0" y="0" width="535" height="535"/></clipPath><clipPath id="clip5"><rect x="-7.51044" y="-7.51761" width="375.022" height="229.035"/></clipPath><clipPath id="clip6"><rect x="0" y="0" width="359" height="214"/></clipPath></defs><g clip-path="url(#clip2)" transform="translate(-459 -244)"><path d="M459 283.574C459 261.718 476.718 244 498.574 244L1393.43 244C1415.28 244 1433 261.718 1433 283.574L1433 1179.43C1433 1201.28 1415.28 1219 1393.43 1219L498.574 1219C476.718 1219 459 1201.28 459 1179.43Z" fill="#FFC000" fill-rule="evenodd"/><path d="M535.633 360.096 591.997 360.096 603.526 404.382C604.014 405.968 604.715 408.591 605.63 412.251 606.545 415.911 607.521 419.876 608.558 424.146 609.595 428.416 610.541 432.381 611.395 436.041L612.859 436.041C613.469 433.357 614.231 430.155 615.146 426.434 616.061 422.713 617.007 418.9 617.983 414.996 618.959 411.092 619.813 407.554 620.545 404.382L632.074 360.096 686.425 360.096 686.425 486 647.812 486 647.812 440.616C647.812 435.736 647.842 430.704 647.903 425.519 647.964 420.334 648.025 415.423 648.086 410.787 648.147 406.151 648.178 402.308 648.178 399.258L646.714 399.258C646.348 401.698 645.829 404.565 645.158 407.859 644.487 411.153 643.786 414.417 643.054 417.65 642.322 420.883 641.59 423.719 640.858 426.159L624.571 486 594.376 486 577.906 426.159C577.296 423.719 576.594 420.883 575.801 417.65 575.008 414.417 574.307 411.153 573.697 407.859 573.087 404.565 572.538 401.759 572.05 399.441L570.586 399.441C570.708 402.491 570.83 406.334 570.952 410.97 571.074 415.606 571.165 420.486 571.226 425.61 571.287 430.734 571.318 435.736 571.318 440.616L571.318 486 535.633 486Z" stroke="#000000" stroke-width="7" stroke-linejoin="round" stroke-miterlimit="10" fill-rule="evenodd"/><text fill="#000000" fill-opacity="0" font-family="Arial,Arial_MSFontService,sans-serif" font-size="125.904" x="535.633" y="470.262">M</text><path d="M730.5 422 762.75 422 762.75 363.5 827.25 363.5 827.25 422 859.5 422 795 480.5Z" stroke="#000000" stroke-width="6.875" stroke-linecap="round" stroke-miterlimit="8" fill-rule="evenodd"/><g clip-path="url(#clip3)" filter="url(#fx0)" transform="matrix(1.99813 0 0 1.99813 652 438)"><g clip-path="url(#clip4)"><path d="M23.3173 43.1429C23.3173 32.1935 32.1936 23.3173 43.143 23.3173L491.448 23.3173C502.397 23.3173 511.273 32.1935 511.273 43.1429L511.273 491.448C511.273 502.397 502.397 511.273 491.448 511.273L43.143 511.273C32.1936 511.273 23.3173 502.397 23.3173 491.448Z" fill="#E54D26" fill-rule="evenodd"/></g></g><g clip-path="url(#clip5)" filter="url(#fx1)" transform="matrix(1.99721 0 0 1.99533 720 977)"><g clip-path="url(#clip6)" transform="matrix(1 0 0 1 0 -5.68434e-14)"><path d="M66.2294-49.7509 96.3842-24.3833 66.2294 1.02902 59.2947-6.03991 81.4411-24.2938 59.2947-42.682ZM34.7183-49.7509 41.6977-42.682 19.5067-24.4728 41.6977-6.03991 34.7183 1.02902 4.56349-24.3833Z" stroke="#FFFFFF" stroke-width="5.00697" stroke-linejoin="round" stroke-miterlimit="10" fill="#FFFFFF" fill-rule="evenodd" transform="matrix(1 0 0 1.00095 21.2878 76.0333)"/><path d="M259.633-63.0398 279.882-63.0398 279.882-16.1265 312.227-16.1265 312.227 0 259.633 0ZM163.499-63.0398 191.72-63.0398 197.493-40.8659C197.737-40.0718 198.088-38.7585 198.546-36.9259 199.004-35.0934 199.493-33.1081 200.012-30.9701 200.532-28.8322 201.005-26.8469 201.433-25.0143L202.166-25.0143C202.471-26.3582 202.853-27.9617 203.311-29.8248 203.769-31.6879 204.242-33.5968 204.731-35.5515 205.22-37.5062 205.647-39.2777 206.014-40.8659L211.786-63.0398 239-63.0398 239 0 219.666 0 219.666-22.7236C219.666-25.167 219.682-27.6868 219.712-30.2829 219.743-32.879 219.773-35.3377 219.804-37.6589 219.834-39.9802 219.85-41.9044 219.85-43.4315L219.117-43.4315C218.933-42.2098 218.674-40.7743 218.338-39.125 218.002-37.4757 217.651-35.8417 217.284-34.2229 216.918-32.6042 216.551-31.1839 216.185-29.9622L208.03 0 192.911 0 184.665-29.9622C184.359-31.1839 184.008-32.6042 183.611-34.2229 183.214-35.8417 182.863-37.4757 182.557-39.125 182.252-40.7743 181.977-42.1792 181.733-43.3399L181-43.3399C181.061-41.8127 181.122-39.8886 181.183-37.5673 181.244-35.2461 181.29-32.8027 181.32-30.2371 181.351-27.6715 181.366-25.167 181.366-22.7236L181.366 0 163.499 0ZM85.7239-63.0398 147.298-63.0398 147.298-46.9133 126.681-46.9133 126.681 0 106.432 0 106.432-46.9133 85.7239-46.9133ZM6.78045-63.0398 27.0302-63.0398 27.0302-40.0413 49.2957-40.0413 49.2957-63.0398 69.5454-63.0398 69.5454 0 49.2957 0 49.2957-23.9148 27.0302-23.9148 27.0302 0 6.78045 0Z" stroke="#FFFFFF" stroke-width="3.50488" stroke-linejoin="round" stroke-miterlimit="10" fill="#FFFFFF" fill-rule="evenodd" transform="matrix(1 0 0 1.00095 21.2878 188.795)"/></g></g><path d="M731 556.614C731 534.736 748.736 517 770.614 517L1666.39 517C1688.26 517 1706 534.736 1706 556.614L1706 1452.39C1706 1474.26 1688.26 1492 1666.39 1492L770.614 1492C748.736 1492 731 1474.26 731 1452.39Z" fill="#E54D26" fill-rule="evenodd"/><path d="M927.2 1061.76 987.425 1112.42 927.2 1163.18 913.35 1149.06 957.581 1112.6 913.35 1075.88ZM864.265 1061.76 878.205 1075.88 833.884 1112.24 878.205 1149.06 864.265 1163.18 804.04 1112.42Z" stroke="#FFFFFF" stroke-width="10" stroke-linejoin="round" stroke-miterlimit="10" fill="#FFFFFF" fill-rule="evenodd"/><text fill="#000000" fill-opacity="0" font-family="Arial,Arial_MSFontService,sans-serif" font-size="101.418" x="804.04" y="1150.5">&lt;&gt;</text><path d="M1313.47 1260.21 1353.91 1260.21 1353.91 1353.91 1418.51 1353.91 1418.51 1386.12 1313.47 1386.12ZM1121.47 1260.21 1177.83 1260.21 1189.36 1304.5C1189.85 1306.08 1190.55 1308.71 1191.46 1312.37 1192.38 1316.03 1193.36 1319.99 1194.39 1324.26 1195.43 1328.53 1196.38 1332.5 1197.23 1336.16L1198.69 1336.16C1199.3 1333.47 1200.07 1330.27 1200.98 1326.55 1201.9 1322.83 1202.84 1319.02 1203.82 1315.11 1204.79 1311.21 1205.65 1307.67 1206.38 1304.5L1217.91 1260.21 1272.26 1260.21 1272.26 1386.12 1233.65 1386.12 1233.65 1340.73C1233.65 1335.85 1233.68 1330.82 1233.74 1325.63 1233.8 1320.45 1233.86 1315.54 1233.92 1310.9 1233.98 1306.27 1234.01 1302.42 1234.01 1299.37L1232.55 1299.37C1232.18 1301.81 1231.66 1304.68 1230.99 1307.98 1230.32 1311.27 1229.62 1314.53 1228.89 1317.77 1228.16 1321 1227.42 1323.84 1226.69 1326.28L1210.41 1386.12 1180.21 1386.12 1163.74 1326.28C1163.13 1323.84 1162.43 1321 1161.64 1317.77 1160.84 1314.53 1160.14 1311.27 1159.53 1307.98 1158.92 1304.68 1158.37 1301.88 1157.88 1299.56L1156.42 1299.56C1156.54 1302.61 1156.66 1306.45 1156.79 1311.09 1156.91 1315.72 1157 1320.6 1157.06 1325.73 1157.12 1330.85 1157.15 1335.85 1157.15 1340.73L1157.15 1386.12 1121.47 1386.12ZM966.134 1260.21 1089.11 1260.21 1089.11 1292.42 1047.94 1292.42 1047.94 1386.12 1007.49 1386.12 1007.49 1292.42 966.134 1292.42ZM808.467 1260.21 848.91 1260.21 848.91 1306.15 893.379 1306.15 893.379 1260.21 933.822 1260.21 933.822 1386.12 893.379 1386.12 893.379 1338.35 848.91 1338.35 848.91 1386.12 808.467 1386.12Z" stroke="#FFFFFF" stroke-width="7" stroke-linejoin="round" stroke-miterlimit="10" fill="#FFFFFF" fill-rule="evenodd"/><text fill="#000000" fill-opacity="0" font-family="Arial,Arial_MSFontService,sans-serif" font-size="125.904" x="808.467" y="1370.38">HTML</text></g></svg>